HIERARCHY
ROOT Hips
{
	OFFSET 0.000000 97.167313 0.000000
	CHANNELS 6 Xposition Yposition Zposition Xrotation Yrotation Zrotation
	JOINT Spine
	{
		OFFSET 0.000000 13.784798 0.064400
		CHANNELS 3 Xrotation Yrotation Zrotation
		JOINT Spine1
		{
			OFFSET 0.000000 12.037903 0.404700
			CHANNELS 3 Xrotation Yrotation Zrotation
			JOINT Spine2
			{
				OFFSET 0.000000 17.795601 0.420200
				CHANNELS 3 Xrotation Yrotation Zrotation
				JOINT Neck
				{
					OFFSET 0.000000 39.131302 11.954600
					CHANNELS 3 Xrotation Yrotation Zrotation
					JOINT Head
					{
						OFFSET 0.000000 14.456192 15.627699
						CHANNELS 3 Xrotation Yrotation Zrotation
						JOINT HeadTop_End
						{
							OFFSET 0.000000 15.703506 7.603401
							CHANNELS 3 Xrotation Yrotation Zrotation
							End Site
							{
								OFFSET 0.000000 17.447403 0.000000
							}
						}
					}
				}
				JOINT LeftShoulder
				{
					OFFSET 17.399500 24.608795 1.168800
					CHANNELS 3 Xrotation Yrotation Zrotation
					JOINT LeftArm
					{
						OFFSET 18.980635 5.765305 1.818600
						CHANNELS 3 Xrotation Yrotation Zrotation
						JOINT LeftForeArm
						{
							OFFSET 49.290169 0.000000 0.000000
							CHANNELS 3 Xrotation Yrotation Zrotation
							JOINT LeftHand
							{
								OFFSET 31.562012 0.000000 0.000000
								CHANNELS 3 Xrotation Yrotation Zrotation
								JOINT LeftHandThumb1
								{
									OFFSET 6.133995 -4.388519 7.076070
									CHANNELS 3 Xrotation Yrotation Zrotation
									JOINT LeftHandThumb2
									{
										OFFSET 6.037666 -3.485840 3.485847
										CHANNELS 3 Xrotation Yrotation Zrotation
										JOINT LeftHandThumb3
										{
											OFFSET 6.496506 -3.750763 3.750761
											CHANNELS 3 Xrotation Yrotation Zrotation
											JOINT LeftHandThumb4
											{
												OFFSET 5.616882 -3.242905 3.242910
												CHANNELS 3 Xrotation Yrotation Zrotation
												End Site
												{
													OFFSET -1.254608 7.132141 0.375429
												}
											}
										}
									}
								}
								JOINT LeftHandPinky1
								{
									OFFSET 18.920792 -0.453171 -11.426712
									CHANNELS 3 Xrotation Yrotation Zrotation
									JOINT LeftHandPinky2
									{
										OFFSET 4.919586 0.000000 0.000000
										CHANNELS 3 Xrotation Yrotation Zrotation
										JOINT LeftHandPinky3
										{
											OFFSET 5.233047 0.000000 0.000000
											CHANNELS 3 Xrotation Yrotation Zrotation
											JOINT LeftHandPinky4
											{
												OFFSET 5.571716 0.000000 0.000000
												CHANNELS 3 Xrotation Yrotation Zrotation
												End Site
												{
													OFFSET -3.459808 4.342407 -0.466164
												}
											}
										}
									}
								}
								JOINT LeftHandRing1
								{
									OFFSET 22.726120 -0.094986 -6.500475
									CHANNELS 3 Xrotation Yrotation Zrotation
									JOINT LeftHandRing2
									{
										OFFSET 6.408615 0.000000 0.000000
										CHANNELS 3 Xrotation Yrotation Zrotation
										JOINT LeftHandRing3
										{
											OFFSET 6.150223 0.000000 0.000000
											CHANNELS 3 Xrotation Yrotation Zrotation
											JOINT LeftHandRing4
											{
												OFFSET 6.145386 0.000000 0.000000
												CHANNELS 3 Xrotation Yrotation Zrotation
												End Site
												{
													OFFSET -3.671402 4.923981 -0.202372
												}
											}
										}
									}
								}
								JOINT LeftHandMiddle1
								{
									OFFSET 23.373947 0.000000 0.000001
									CHANNELS 3 Xrotation Yrotation Zrotation
									JOINT LeftHandMiddle2
									{
										OFFSET 6.996567 0.000000 0.000000
										CHANNELS 3 Xrotation Yrotation Zrotation
										JOINT LeftHandMiddle3
										{
											OFFSET 7.015945 0.000000 0.000000
											CHANNELS 3 Xrotation Yrotation Zrotation
											JOINT LeftHandMiddle4
											{
												OFFSET 7.721573 0.000000 0.000000
												CHANNELS 3 Xrotation Yrotation Zrotation
												End Site
												{
													OFFSET -4.651108 6.158463 0.251582
												}
											}
										}
									}
								}
								JOINT LeftHandIndex1
								{
									OFFSET 21.310577 -0.490082 6.209344
									CHANNELS 3 Xrotation Yrotation Zrotation
									JOINT LeftHandIndex2
									{
										OFFSET 7.536453 0.000000 0.000000
										CHANNELS 3 Xrotation Yrotation Zrotation
										JOINT LeftHandIndex3
										{
											OFFSET 7.512344 0.000000 0.000000
											CHANNELS 3 Xrotation Yrotation Zrotation
											JOINT LeftHandIndex4
											{
												OFFSET 10.212402 0.000000 0.000001
												CHANNELS 3 Xrotation Yrotation Zrotation
												End Site
												{
													OFFSET -5.180801 8.690506 1.388433
												}
											}
										}
									}
								}
							}
						}
					}
				}
				JOINT RightShoulder
				{
					OFFSET -17.399500 24.608795 1.168800
					CHANNELS 3 Xrotation Yrotation Zrotation
					JOINT RightArm
					{
						OFFSET -18.980635 5.765305 1.818600
						CHANNELS 3 Xrotation Yrotation Zrotation
						JOINT RightForeArm
						{
							OFFSET -49.290169 0.000000 0.000000
							CHANNELS 3 Xrotation Yrotation Zrotation
							JOINT RightHand
							{
								OFFSET -31.562012 0.000000 0.000000
								CHANNELS 3 Xrotation Yrotation Zrotation
								JOINT RightHandThumb1
								{
									OFFSET -6.133995 -4.388519 7.076070
									CHANNELS 3 Xrotation Yrotation Zrotation
									JOINT RightHandThumb2
									{
										OFFSET -6.037666 -3.485840 3.485847
										CHANNELS 3 Xrotation Yrotation Zrotation
										JOINT RightHandThumb3
										{
											OFFSET -6.496506 -3.750763 3.750761
											CHANNELS 3 Xrotation Yrotation Zrotation
											JOINT RightHandThumb4
											{
												OFFSET -5.616882 -3.242905 3.242910
												CHANNELS 3 Xrotation Yrotation Zrotation
												End Site
												{
													OFFSET 1.254608 7.132141 0.375429
												}
											}
										}
									}
								}
								JOINT RightHandIndex1
								{
									OFFSET -21.310577 -0.490082 6.209344
									CHANNELS 3 Xrotation Yrotation Zrotation
									JOINT RightHandIndex2
									{
										OFFSET -7.536453 0.000000 0.000000
										CHANNELS 3 Xrotation Yrotation Zrotation
										JOINT RightHandIndex3
										{
											OFFSET -7.512344 0.000000 0.000000
											CHANNELS 3 Xrotation Yrotation Zrotation
											JOINT RightHandIndex4
											{
												OFFSET -10.212402 0.000000 0.000001
												CHANNELS 3 Xrotation Yrotation Zrotation
												End Site
												{
													OFFSET 5.180801 8.690506 1.388433
												}
											}
										}
									}
								}
								JOINT RightHandMiddle1
								{
									OFFSET -23.373947 0.000000 0.000001
									CHANNELS 3 Xrotation Yrotation Zrotation
									JOINT RightHandMiddle2
									{
										OFFSET -6.996567 0.000000 0.000000
										CHANNELS 3 Xrotation Yrotation Zrotation
										JOINT RightHandMiddle3
										{
											OFFSET -7.015945 0.000000 0.000000
											CHANNELS 3 Xrotation Yrotation Zrotation
											JOINT RightHandMiddle4
											{
												OFFSET -7.721573 0.000000 0.000000
												CHANNELS 3 Xrotation Yrotation Zrotation
												End Site
												{
													OFFSET 4.651108 6.158463 0.251582
												}
											}
										}
									}
								}
								JOINT RightHandRing1
								{
									OFFSET -22.726120 -0.094986 -6.500475
									CHANNELS 3 Xrotation Yrotation Zrotation
									JOINT RightHandRing2
									{
										OFFSET -6.408615 0.000000 0.000000
										CHANNELS 3 Xrotation Yrotation Zrotation
										JOINT RightHandRing3
										{
											OFFSET -6.150223 0.000000 0.000000
											CHANNELS 3 Xrotation Yrotation Zrotation
											JOINT RightHandRing4
											{
												OFFSET -6.145386 0.000000 0.000000
												CHANNELS 3 Xrotation Yrotation Zrotation
												End Site
												{
													OFFSET 3.671402 4.923981 -0.202372
												}
											}
										}
									}
								}
								JOINT RightHandPinky1
								{
									OFFSET -18.920792 -0.453171 -11.426712
									CHANNELS 3 Xrotation Yrotation Zrotation
									JOINT RightHandPinky2
									{
										OFFSET -4.919586 0.000000 0.000000
										CHANNELS 3 Xrotation Yrotation Zrotation
										JOINT RightHandPinky3
										{
											OFFSET -5.233047 0.000000 0.000000
											CHANNELS 3 Xrotation Yrotation Zrotation
											JOINT RightHandPinky4
											{
												OFFSET -5.571716 0.000000 0.000000
												CHANNELS 3 Xrotation Yrotation Zrotation
												End Site
												{
													OFFSET 3.459808 4.342407 -0.466164
												}
											}
										}
									}
								}
							}
						}
					}
				}
			}
		}
	}
	JOINT LeftUpLeg
	{
		OFFSET 19.899099 -7.885101 -3.429500
		CHANNELS 3 Xrotation Yrotation Zrotation
		JOINT LeftLeg
		{
			OFFSET 1.745560 -36.997807 10.304700
			CHANNELS 3 Xrotation Yrotation Zrotation
			JOINT LeftFoot
			{
				OFFSET -1.745558 -29.803308 -13.615400
				CHANNELS 3 Xrotation Yrotation Zrotation
				JOINT LeftToeBase
				{
					OFFSET 1.181900 -18.539904 15.226099
					CHANNELS 3 Xrotation Yrotation Zrotation
					JOINT LeftToe_End
					{
						OFFSET -0.863701 1.402801 16.534700
						CHANNELS 3 Xrotation Yrotation Zrotation
						End Site
						{
							OFFSET 0.000000 16.616566 0.000000
						}
					}
				}
			}
		}
	}
	JOINT RightUpLeg
	{
		OFFSET -19.899099 -7.885101 -3.429500
		CHANNELS 3 Xrotation Yrotation Zrotation
		JOINT RightLeg
		{
			OFFSET -1.745560 -36.997807 10.304700
			CHANNELS 3 Xrotation Yrotation Zrotation
			JOINT RightFoot
			{
				OFFSET 1.745558 -29.803308 -13.615400
				CHANNELS 3 Xrotation Yrotation Zrotation
				JOINT RightToeBase
				{
					OFFSET -1.181900 -18.539904 15.226099
					CHANNELS 3 Xrotation Yrotation Zrotation
					JOINT RightToe_End
					{
						OFFSET 0.863701 1.402801 16.534700
						CHANNELS 3 Xrotation Yrotation Zrotation
						End Site
						{
							OFFSET 0.000000 16.616566 0.000000
						}
					}
				}
			}
		}
	}
}
MOTION
Frames: 5
Frame Time: 0.033333
0.009144 95.345062 2.147519 -0.696129 -5.624970 -1.307764 1.113032 1.301713 -1.039338 0.286060 0.355956 -0.455744 0.283876 0.356125 -0.456886 2.761797 -0.047209 3.216980 13.663609 8.259753 4.754876 0.000001 -0.000000 -0.000000 0.682883 1.902087 -11.725260 20.516819 -34.784627 -49.191374 0.000022 -32.729993 0.000026 -0.086959 -1.449307 -11.131270 11.467055 8.387734 10.426389 16.499019 8.787557 6.791108 -1.081301 11.311082 6.497134 0.000000 0.000003 0.000003 5.494554 8.190146 -88.518992 4.463397 5.684674 -76.257792 4.463410 5.684683 -76.257689 0.000000 0.000004 -0.000002 4.758861 8.090362 -81.251534 5.902098 5.850844 -90.500498 6.106958 5.845462 -92.510923 -0.000002 0.000004 0.000002 4.455075 8.021104 -78.203467 5.403710 5.834007 -85.607481 5.608293 5.846024 -87.617865 -0.000000 0.000001 0.000006 7.309645 9.469843 -64.675321 4.499703 5.693393 -76.623999 2.979857 5.100282 -60.569762 -0.000000 0.000003 0.000001 0.525136 1.139978 6.570242 -45.235185 12.164355 45.111917 -0.000030 127.497652 0.000057 -18.799368 15.782501 3.125286 -45.332509 -37.928925 21.653110 1.904597 3.050049 -27.146399 0.356864 -0.720746 -0.831502 0.000000 0.000000 0.000002 1.835999 -8.990772 16.279375 0.001114 -0.101975 1.251945 0.006655 0.249196 -3.060499 -0.000000 0.000000 -0.000001 0.107661 -3.068781 6.513121 0.049930 -0.680862 8.388301 0.020461 -0.436549 5.366852 -0.000001 0.000001 -0.000006 -0.043052 -0.983869 3.668999 0.066962 -0.787745 9.717145 0.001663 -0.124588 1.529578 0.000000 0.000001 0.000000 -0.473929 -0.305519 12.066438 0.075449 -0.835818 10.316557 0.067943 -0.793443 9.788155 -0.000000 -0.000001 0.000004 2.979366 14.347897 -3.296271 8.271304 -3.948111 3.537766 -9.776207 -0.386065 0.537922 -0.425215 -0.004074 0.644447 0.000000 -0.000000 0.000000 3.494136 -12.569296 3.081293 5.310812 -2.182827 -3.365118 -7.943239 -0.667020 3.021183 -0.245658 0.000012 -0.000000 -0.000000 -0.000000 0.000000 
0.022496 95.360565 2.129105 -0.691992 -5.609882 -1.323407 1.181774 1.307260 -0.985813 0.289754 0.356971 -0.451906 0.287575 0.357271 -0.453064 2.769261 -0.053978 3.225124 13.641918 8.237400 4.638501 -0.000001 -0.000000 -0.000000 0.682233 1.904017 -11.711726 20.338580 -34.804001 -49.321564 0.000002 -32.627435 -0.000006 -0.027959 -1.464315 -11.132676 11.471584 8.397783 10.425226 16.547503 8.806823 6.753969 -1.076226 11.310705 6.489061 -0.000000 0.000000 0.000002 5.494427 8.190160 -88.518972 4.463491 5.684711 -76.258625 4.463489 5.684698 -76.258536 0.000001 0.000003 -0.000007 4.758769 8.090357 -81.251500 5.904323 5.850808 -90.522334 6.109169 5.845375 -92.532746 -0.000001 -0.000001 0.000003 4.454566 8.020977 -78.199068 5.407027 5.834234 -85.640067 5.611623 5.846164 -87.650452 -0.000001 -0.000000 0.000004 7.316396 9.474313 -64.659912 4.501254 5.693771 -76.639592 2.981205 5.101020 -60.584919 -0.000003 -0.000000 -0.000001 0.521588 1.105141 6.445535 -44.032679 12.263540 44.607334 0.000003 127.677040 0.000025 -19.561634 16.579850 2.926669 -46.764222 -37.836031 21.022858 1.957190 3.076996 -27.101591 0.074533 -0.771424 -1.455266 0.000000 -0.000002 -0.000000 2.090036 -9.389933 17.506369 0.001360 -0.112842 1.385287 0.006249 0.241571 -2.966642 -0.000002 -0.000001 -0.000001 0.100082 -2.984492 7.362484 0.053373 -0.703824 8.673408 0.021838 -0.450986 5.544934 -0.000000 0.000001 -0.000004 -0.023630 -1.190783 3.394957 0.069926 -0.804840 9.930193 0.002172 -0.142465 1.749120 0.000001 0.000001 -0.000003 -0.485626 -0.332451 12.391461 0.080513 -0.863113 10.657411 0.064448 -0.772925 9.532640 0.000002 0.000001 0.000004 2.962228 14.348544 -3.298795 8.246652 -3.959427 3.558238 -9.740411 -0.388238 0.538642 -0.425215 -0.004074 0.644447 -0.000000 0.000000 0.000000 3.514707 -12.568877 3.093538 5.229186 -2.190093 -3.355410 -7.881899 -0.668509 3.019721 -0.245659 0.000010 -0.000000 0.000000 -0.000000 -0.000000 
0.040640 95.379524 2.105728 -0.705597 -5.552166 -1.344501 1.324416 1.319637 -0.948972 0.314178 0.360724 -0.447967 0.312003 0.361138 -0.449286 2.741595 -0.066123 3.226328 13.489080 8.134730 4.538476 0.000002 0.000000 -0.000000 0.682481 1.925237 -11.709547 19.834200 -34.736932 -49.609057 0.000017 -32.357034 0.000014 0.360458 -1.562874 -11.141163 11.462517 8.377715 10.427562 16.633490 8.849735 6.641527 -1.097866 11.312308 6.523441 -0.000000 0.000001 -0.000001 5.494668 8.190154 -88.518978 4.462488 5.684458 -76.248639 4.462493 5.684486 -76.248564 0.000002 0.000001 -0.000000 4.758994 8.090390 -81.251527 5.904790 5.850819 -90.526924 6.109644 5.845364 -92.537349 -0.000000 0.000000 0.000005 4.455245 8.021152 -78.203754 5.407287 5.834271 -85.642636 5.611861 5.846186 -87.653033 0.000000 -0.000000 0.000004 7.322768 9.476263 -64.672746 4.501359 5.693789 -76.640569 2.981284 5.101063 -60.585690 -0.000001 0.000001 0.000002 0.519000 1.092725 6.343174 -41.392234 12.475180 43.048944 -0.000041 127.554616 0.000048 -20.756064 18.262826 3.022980 -48.775221 -37.853991 19.928057 2.005529 3.101815 -27.060960 -0.218203 -0.820615 -2.100921 0.000000 -0.000000 -0.000002 2.394277 -9.840884 18.849517 0.001788 -0.129119 1.585155 0.005564 0.227881 -2.798506 -0.000000 -0.000001 0.000001 0.086838 -2.887287 8.418993 0.057771 -0.732064 9.024323 0.023905 -0.471773 5.801359 0.000000 0.000000 -0.000008 -0.007176 -1.405519 3.189731 0.073373 -0.824288 10.172708 0.002876 -0.163756 2.010618 -0.000000 -0.000000 -0.000002 -0.513303 -0.298999 12.766250 0.084590 -0.884578 10.925735 0.060499 -0.749025 9.235175 -0.000000 -0.000001 0.000000 2.944664 14.350811 -3.308838 8.231813 -4.007273 3.601135 -9.693474 -0.394183 0.539403 -0.425215 -0.004074 0.644447 -0.000000 -0.000000 0.000000 3.574758 -12.565563 3.105239 5.123678 -2.235431 -3.337150 -7.817096 -0.675117 3.024061 -0.245659 0.000010 -0.000000 -0.000000 -0.000000 -0.000000 
0.064024 95.403793 2.075667 -0.740365 -5.450281 -1.369662 1.530273 1.354877 -0.928662 0.360084 0.371440 -0.445005 0.357898 0.371930 -0.446663 2.674392 -0.080480 3.208308 13.130777 7.960107 4.428316 0.000001 0.000000 -0.000001 0.682511 1.972677 -11.692230 19.017318 -34.656756 -50.044359 0.000003 -31.905282 -0.000010 1.140382 -1.760918 -11.156130 11.450144 8.350254 10.430742 16.747754 8.906626 6.490862 -1.116465 11.313713 6.552950 0.000001 0.000002 0.000003 5.495248 8.190168 -88.519013 4.461751 5.684279 -76.241106 4.461753 5.684292 -76.241024 0.000003 0.000001 0.000001 4.759592 8.090462 -81.251562 5.903709 5.850801 -90.516467 6.108587 5.845408 -92.526906 0.000001 0.000001 0.000002 4.451221 8.020073 -78.157281 5.408275 5.834348 -85.652300 5.612854 5.846218 -87.662657 0.000000 0.000002 0.000004 7.325541 9.484910 -64.583926 4.500225 5.693520 -76.629135 2.980186 5.100464 -60.573567 -0.000001 -0.000000 0.000001 0.518039 1.108925 6.283444 -36.437362 12.920062 40.008345 -0.000024 126.623047 0.000050 -21.036954 21.373120 1.984868 -51.225807 -37.869157 18.558642 2.035497 3.117416 -27.038386 -0.563076 -0.874224 -2.860423 0.000000 -0.000003 -0.000000 2.754992 -10.349699 20.279349 0.002332 -0.147361 1.809284 0.004799 0.211641 -2.598965 -0.000000 0.000000 0.000002 0.055555 -2.711849 9.434575 0.062562 -0.761629 9.392063 0.026328 -0.495032 6.088383 0.000000 -0.000000 -0.000006 0.007257 -1.593171 2.929720 0.076274 -0.840306 10.372575 0.003573 -0.182634 2.242550 -0.000000 -0.000000 0.000002 -0.535648 -0.289818 13.132390 0.086316 -0.893426 11.036383 0.055174 -0.715510 8.818572 -0.000000 -0.000001 0.000000 2.933051 14.354600 -3.327544 8.217652 -4.093914 3.661216 -9.628554 -0.404475 0.543986 -0.425215 -0.004073 0.644447 -0.000000 -0.000000 0.000000 3.678726 -12.559216 3.113892 4.989676 -2.320150 -3.308877 -7.745518 -0.686789 3.033824 -0.245659 0.000010 -0.000000 -0.000000 -0.000002 0.000000 
0.090347 95.416634 2.034543 -0.791647 -5.301125 -1.394854 1.767822 1.425636 -0.918815 0.418303 0.392358 -0.441596 0.416089 0.392883 -0.443742 2.591898 -0.092796 3.168747 12.656590 7.770133 4.231494 -0.000000 -0.000000 -0.000000 0.684320 2.040374 -11.704241 18.162467 -34.609494 -50.418978 -0.000008 -31.416920 -0.000017 1.990744 -1.977072 -11.169423 11.422140 8.288159 10.437925 16.799444 8.950374 6.388153 -1.122611 11.314190 6.562721 0.000000 0.000002 -0.000001 5.496722 8.190214 -88.519074 4.461690 5.684258 -76.240552 4.461696 5.684275 -76.240463 0.000001 -0.000001 0.000001 4.761030 8.090699 -81.251589 5.906826 5.850793 -90.546855 6.111689 5.845276 -92.557253 0.000001 -0.000001 0.000001 4.449148 8.019485 -78.121730 5.410521 5.834491 -85.674567 5.615113 5.846328 -87.684910 0.000002 0.000002 0.000007 7.325210 9.486603 -64.561721 4.502081 5.693969 -76.647891 2.981843 5.101395 -60.592206 0.000000 0.000009 -0.000001 0.515007 1.105576 6.150915 -28.724682 13.770082 35.802981 -0.000016 123.642270 0.000039 -20.289108 24.912717 -1.272707 -54.188836 -38.031952 16.355600 1.697000 2.946543 -27.377688 -0.881702 -0.919599 -3.561092 -0.000000 -0.000002 -0.000000 3.177063 -10.958775 21.646773 0.003017 -0.167673 2.058605 0.003977 0.192875 -2.368126 0.000001 -0.000003 0.000003 0.012291 -2.507747 10.350053 0.067663 -0.791866 9.768604 0.029075 -0.520154 6.398639 -0.000001 0.000000 -0.000008 0.025011 -1.834158 2.439285 0.079512 -0.857807 10.591117 0.004466 -0.204091 2.506155 -0.000001 0.000000 -0.000005 -0.537919 -0.333689 13.355113 0.085350 -0.888457 10.974253 0.048602 -0.671782 8.275700 0.000000 -0.000000 0.000002 2.890217 14.360365 -3.348010 8.268508 -4.219757 3.735001 -9.577248 -0.419513 0.556319 -0.425215 -0.004074 0.644447 0.000000 0.000000 0.000000 3.785444 -12.550639 3.111606 4.903132 -2.451362 -3.273167 -7.708236 -0.703773 3.050346 -0.245658 0.000010 -0.000000 -0.000000 -0.000000 -0.000000 
